<svg width="50" height="50" viewBox="0 0 50 50" fill="none" xmlns="http://www.w3.org/2000/svg">
<g clip-path="url(#clip0_328_2092)">
<rect width="50" height="50" rx="25" fill="#F4F4F4"/>
<path d="M31.3533 21V17.2105H18.6475V21M27.6475 17.2105V10.579M23.9416 17.2105V13.4211" stroke="#1D1D1D" stroke-linecap="round" stroke-linejoin="round"/>
<path d="M18.6471 12.9473V17.2105H31.3529V12.9473C31.3529 12.9473 34 11.5263 34 9.15787C34 6.78946 31.8824 5.84209 29.2353 5.84209C29.2353 4.89473 27.6471 3 25 3C22.3529 3 20.7647 4.89473 20.7647 5.84209C18.6471 5.84209 16 6.78946 16 9.15787C16 11.5263 18.6471 12.9473 18.6471 12.9473Z" stroke="#1D1D1D" stroke-linecap="round" stroke-linejoin="round"/>
<path d="M10 54C10 54 7 54 7 51C7 48 10 39 25 39C40 39 43 48 43 51C43 54 40 54 40 54H10ZM25 36C27.3869 36 29.6761 35.0518 31.364 33.364C33.0518 31.6761 34 29.3869 34 27C34 24.6131 33.0518 22.3239 31.364 20.636C29.6761 18.9482 27.3869 18 25 18C22.6131 18 20.3239 18.9482 18.636 20.636C16.9482 22.3239 16 24.6131 16 27C16 29.3869 16.9482 31.6761 18.636 33.364C20.3239 35.0518 22.6131 36 25 36Z" fill="#1D1D1D"/>
</g>
<defs>
<clipPath id="clip0_328_2092">
<rect width="50" height="50" rx="25" fill="white"/>
</clipPath>
</defs>
</svg>
