<svg width="20" height="12" viewBox="0 0 20 12" fill="none" xmlns="http://www.w3.org/2000/svg">
<path d="M5.8335 0.166626V8.49996C5.8335 9.42496 5.09183 10.1666 4.16683 10.1666H3.3335C2.87516 10.1666 2.50016 9.79163 2.50016 9.33329V6.83329H0.833496V9.33329C0.833496 10.7166 1.95016 11.8333 3.3335 11.8333H4.16683C6.0085 11.8333 7.50016 10.3416 7.50016 8.49996V0.166626M19.1668 7.14996L18.1418 6.12496C17.8392 5.82097 17.4795 5.57981 17.0833 5.41534C16.6872 5.25088 16.2624 5.16635 15.8335 5.16663H14.1668V6.83329H15.8335C16.2502 6.83329 16.6668 6.99996 16.9585 7.29996L17.2502 7.59163L16.2502 8.16663C15.8668 8.38329 15.4418 8.49996 15.0002 8.49996H14.1668C13.7002 8.49996 13.3335 8.13329 13.3335 7.66663V0.999959H11.6668V4.17496L11.1502 3.59996C10.5835 2.97496 9.66683 2.66663 8.82516 2.66663H8.3335V4.33329H8.82516C9.3585 4.33329 9.86683 4.54163 10.2418 4.92496L11.6668 6.34163V7.66663C11.6668 8.59996 10.9335 9.33329 10.0002 9.33329H8.3335V11H10.0002C11.1418 11 12.0835 10.4166 12.6418 9.53329C12.8394 9.73722 13.0767 9.89859 13.3389 10.0075C13.6011 10.1164 13.8829 10.1706 14.1668 10.1666H15.0002C15.7335 10.1666 16.4502 9.97496 17.0835 9.60829L19.1668 8.40829V7.14996Z" fill="#5B8E1A"/>
</svg>
