<svg width="16" height="18" viewBox="0 0 16 18" fill="none" xmlns="http://www.w3.org/2000/svg">
<path fill-rule="evenodd" clip-rule="evenodd" d="M8.80264 0.905025C8.75242 0.837726 8.68915 0.781236 8.61662 0.738929C8.54408 0.696622 8.46377 0.669366 8.38046 0.658788C8.29716 0.648209 8.21258 0.654526 8.13177 0.677361C8.05097 0.700196 7.97559 0.73908 7.91014 0.791692C6.31291 2.07404 5.25946 3.91275 4.96097 5.93919C4.41349 5.54177 3.93371 5.05862 3.54014 4.50836C3.48667 4.43361 3.41736 4.37158 3.33717 4.32667C3.25698 4.28177 3.16787 4.25511 3.0762 4.24858C2.98453 4.24206 2.89254 4.25583 2.8068 4.28892C2.72105 4.32201 2.64366 4.3736 2.58014 4.44003C1.47944 5.59121 0.773806 7.06291 0.565442 8.64195C0.357078 10.221 0.656808 11.8253 1.42121 13.2226C2.18562 14.6199 3.37501 15.7376 4.81709 16.4138C6.25917 17.0899 7.87906 17.2894 9.4421 16.9834C11.0051 16.6773 12.4302 15.8816 13.5108 14.7116C14.5914 13.5415 15.2714 12.0578 15.4524 10.4754C15.6334 8.89297 15.3059 7.29404 14.5174 5.91018C13.7289 4.52633 12.5204 3.42943 11.0668 2.77836C10.1732 2.34383 9.39681 1.70144 8.80264 0.905025ZM11.1251 10.875C11.1248 11.3271 11.0265 11.7736 10.8368 12.1839C10.6472 12.5943 10.3708 12.9586 10.0267 13.2517C9.68258 13.5448 9.27899 13.7598 8.84374 13.8818C8.4085 14.0039 7.95196 14.03 7.50563 13.9585C7.0593 13.887 6.6338 13.7195 6.25849 13.4675C5.88317 13.2156 5.56698 12.8853 5.33173 12.4993C5.09647 12.1133 4.94775 11.6809 4.89583 11.2318C4.8439 10.7828 4.89001 10.3278 5.03097 9.89836C5.55431 10.2859 6.15597 10.5734 6.80847 10.7317C6.98556 9.59112 7.55245 8.54716 8.41264 7.77752C9.16334 7.87749 9.85219 8.24667 10.3511 8.81641C10.85 9.38616 11.1251 10.1177 11.1251 10.875Z" fill="#D23B3B"/>
</svg>
