<svg width="33" height="30" viewBox="0 0 33 30" fill="none" xmlns="http://www.w3.org/2000/svg">
<path d="M14.9536 27.1025L14.9522 27.1012C10.7227 23.2659 7.29265 20.1494 4.90825 17.2323C2.53485 14.3286 1.30225 11.7448 1.30225 8.99183C1.30225 4.49353 4.80974 1 9.29407 1C11.8365 1 14.2931 2.18871 15.8922 4.05183L16.651 4.93597L17.4099 4.05183C19.0089 2.18871 21.4656 1 24.008 1C28.4923 1 31.9998 4.49353 31.9998 8.99183C31.9998 11.7448 30.7672 14.3286 28.3938 17.2323C26.0094 20.1494 22.5793 23.2659 18.3498 27.1012L18.3484 27.1025L16.651 28.6477L14.9536 27.1025Z" stroke="#1D1D1D" stroke-width="2"/>
</svg>
