<svg width="40" height="40" viewBox="0 0 40 40" fill="none" xmlns="http://www.w3.org/2000/svg">
<path d="M7.23777 12.5474L8.33264 11.4316C9.55385 10.2105 11.5752 10.2105 12.8385 11.5158L12.8806 11.5789C13.9123 12.6316 15.2809 13.1368 16.7758 13.2842C18.8182 13.4737 20.7974 14.5684 22.1028 16.5474C23.5346 18.8211 23.5135 21.8526 22.0186 24.1053C21.4547 24.9968 20.6965 25.7493 19.8006 26.3063C18.9048 26.8634 17.8945 27.2106 16.8454 27.322C15.7963 27.4333 14.7356 27.306 13.7427 26.9495C12.7498 26.5929 11.8505 26.0164 11.1119 25.2632C9.93285 24.1053 9.25908 22.6105 9.09063 21.0526C8.92219 19.5158 8.31159 18.0632 7.23777 16.9895C6.01656 15.7895 6.01656 13.7684 7.23777 12.5474ZM16.081 29.4737C13.6175 29.4737 11.3225 28.5263 9.61702 26.7789C8.14314 25.2632 7.21671 23.3684 6.9851 21.3053C6.92194 20.6737 6.73244 19.8526 6.22711 19.0947C4.96379 20.8421 4.2058 22.9474 4.2058 25.2632C4.2058 28.7158 5.89023 31.7684 8.48003 33.6842H35.7888V31.5789C35.7888 24 30.7566 17.5789 23.8715 15.4737C25.7454 18.4211 25.7033 22.3579 23.7872 25.2632C22.1028 27.8947 19.1972 29.4737 16.081 29.4737ZM26.9034 11.7053H29.5775C31.4093 11.7053 33.0095 12.9895 33.0095 15.2842V16.8421H35.6414V14.7368C35.6414 11.5789 32.841 9.17895 29.5775 9.17895H26.9034C25.1558 9.17895 23.6609 7.45263 23.6609 5.68421C23.6609 3.91579 25.1558 2.61053 26.9034 2.61053V0C23.6609 0 21.0501 2.61053 21.0501 5.85263C21.0501 9.09474 23.6609 11.7053 26.9034 11.7053ZM5.25857 11.6842C5.3849 11.4737 5.55334 11.2632 5.74284 11.0526L6.83771 9.9579C7.02721 9.76842 7.23776 9.62105 7.44832 9.47368L4.47952 6.46316C4.77429 5.89474 4.66902 5.15789 4.2058 4.67368C3.90428 4.38022 3.50012 4.21601 3.07934 4.21601C2.65856 4.21601 2.2544 4.38022 1.95288 4.67368C1.65811 4.96842 1.51072 5.32632 1.48966 5.70526C1.11067 5.72632 0.752728 5.87368 0.457953 6.16842C-0.152651 6.77895 -0.152651 7.78947 0.457953 8.42105C0.942225 8.88421 1.65811 8.98947 2.24765 8.69474L5.25857 11.6842ZM34.5044 5.03158C35.5782 3.95789 36.252 2.50526 36.252 0.884211H33.6201C33.6201 2.63158 32.1462 4.10526 30.3986 4.10526V6.71579C34.3149 6.71579 37.389 9.91579 37.389 13.8316V18.9474H39.9998V13.8316C40.0104 11.9952 39.4996 10.1935 38.5268 8.63576C37.554 7.07805 36.1592 5.82827 34.5044 5.03158ZM6.31133 40H35.7888C38.1259 40 39.9998 38.1263 39.9998 35.7895H2.10027C2.10027 36.9062 2.54393 37.9771 3.33366 38.7668C4.12339 39.5564 5.19449 40 6.31133 40Z" fill="#1D1D1D"/>
</svg>
