<svg width="340" height="327" viewBox="0 0 340 327" fill="none" xmlns="http://www.w3.org/2000/svg">
<g filter="url(#filter0_d_311_641)">
<path d="M321.323 42.2832L8.97827 152.66C8.97827 152.66 7.826 177.393 10.5057 197.919C13.1854 218.446 16.9637 229.486 16.9637 229.486C16.9637 229.486 27.2269 276.273 86.9572 299.48C146.687 322.686 207.811 296.344 226.194 286.162C248.274 273.942 277.108 245.752 288.523 231.684C299.939 217.615 322.073 185.754 324.726 165.2C327.379 144.647 330.166 112.169 330.058 91.6162C329.871 61.175 321.323 42.2832 321.323 42.2832Z" fill="#F4F4F4"/>
<path d="M168.741 63.6403C150.867 67.8206 93.7902 74.2787 80.097 78.0838C66.4038 81.889 47.5388 89.2849 41.6434 93.9476C31.9966 101.585 8.81728 140.467 8.95126 152.66C9.16564 173.856 17.0439 200.036 23.9039 206.36C28.8881 210.97 67.556 266.761 120.051 267.136C172.546 267.511 288.201 188.38 293.132 181.547C298.09 174.687 315.24 141.887 320.009 121.173C324.216 102.871 329.549 63.5331 320.518 39.6571C313.578 21.2745 297.178 4.31205 286.004 2.08791C263.897 -2.27998 251.302 2.00752 247.872 3.15978C244.442 4.31205 238.574 39.9787 223.916 45.3917C202.237 53.3771 168.741 63.6403 168.741 63.6403Z" fill="#F4F4F4"/>
<path d="M236.001 44.561C251.597 35.3428 253.232 1.76636 253.232 1.76636C253.232 1.76636 241.28 2.54347 227.962 13.3426C214.644 24.1417 199.263 43.4087 191.679 48.9289C184.096 54.449 168.741 63.6403 168.741 63.6403C168.741 63.6403 211.964 58.7365 236.001 44.561ZM254.143 83.8184C262.369 109.115 292.248 117.1 300.743 114.822C309.237 112.518 314.516 93.9208 313.819 66.8292C313.123 39.7375 299.349 24.5705 286.487 25.5084C275.473 26.2855 260.065 37.0578 254.33 53.5111C250.994 63.3278 250.929 73.9611 254.143 83.8184ZM203.845 77.6283C207.409 81.1923 197.655 91.6431 203.148 107.936C208.668 124.228 217.833 128.837 217.163 133.661C216.493 138.484 178.361 186.692 151.511 196.794C124.66 206.896 50.1382 203.52 36.4718 165.576C26.1282 136.876 47.9676 112.116 53.7022 107.48C62.4112 100.432 71.0398 95.0463 84.2506 92.5542C89.2884 91.6163 126.965 85.9085 149.233 83.604C171.474 81.2995 199.718 73.5016 203.845 77.6283Z" fill="#F4F4F4"/>
<path d="M140.471 97.1365C142.346 105.845 116.809 114.367 97.0865 128.81C82.4822 139.502 71.3615 159.118 58.7402 151.32C46.1189 143.522 63.912 113.375 70.6916 108.15C78.7039 101.96 138.407 87.4896 140.471 97.1365ZM209.982 45.0433C211.911 49.3308 226.06 38.8533 232.947 33.0919C238.52 28.4561 245.273 24.249 241.682 18.6216C237.556 12.1904 230.213 17.7105 223.085 25.2672C218.423 30.2247 207.892 40.4611 209.982 45.0433Z" fill="#BCBCBC"/>
<path d="M104.429 224.341C115.094 227.718 111.369 265.099 119.354 264.751C128.599 264.376 121.847 233.023 130.341 225.467C138.836 217.883 149.528 219.116 164.909 211.532C180.291 203.949 197.199 189.693 209.124 175.678C221.075 161.663 234.393 145.826 240.584 141.003C246.774 136.179 279.171 126.533 290.399 134.357C301.654 142.155 297.527 175.223 297.527 175.223C297.527 175.223 275.607 214.507 231.526 240.58C187.445 266.653 162.363 276.997 108.716 270.861C55.0688 264.724 22.8857 205.289 22.8857 205.289C22.8857 205.289 43.5729 214.105 66.9666 217.937C90.3603 221.769 93.8171 220.992 104.429 224.341Z" fill="#F4F4F4"/>
<path d="M231.687 62.9704C218.449 71.0095 206.659 86.0157 212.661 106.14C218.664 126.265 249.802 138.484 270.301 118.869C288.47 101.504 284.182 81.2459 275.848 71.4114C267.568 61.6038 248.944 52.4928 231.687 62.9704Z" fill="#F4F4F4"/>
<path d="M259.449 71.9742C245.407 64.8463 231.017 72.9925 226.542 82.1302C222.094 91.268 222.657 104.104 233.268 111.714C244.63 119.887 262.075 115.787 268.158 103.273C274.241 90.7588 270.596 77.6284 259.449 71.9742Z" fill="#F4F4F4"/>
</g>
<defs>
<filter id="filter0_d_311_641" x="0.731934" y="0.167114" width="341.33" height="328.603" filterUnits="userSpaceOnUse" color-interpolation-filters="sRGB">
<feFlood flood-opacity="0" result="BackgroundImageFix"/>
<feColorMatrix in="SourceAlpha" type="matrix" values="0 0 0 0 0 0 0 0 0 0 0 0 0 0 0 0 0 0 127 0" result="hardAlpha"/>
<feOffset dx="2" dy="10"/>
<feGaussianBlur stdDeviation="5"/>
<feComposite in2="hardAlpha" operator="out"/>
<feColorMatrix type="matrix" values="0 0 0 0 0 0 0 0 0 0 0 0 0 0 0 0 0 0 0.25 0"/>
<feBlend mode="normal" in2="BackgroundImageFix" result="effect1_dropShadow_311_641"/>
<feBlend mode="normal" in="SourceGraphic" in2="effect1_dropShadow_311_641" result="shape"/>
</filter>
</defs>
</svg>
