<svg width="26" height="26" viewBox="0 0 26 26" fill="none" xmlns="http://www.w3.org/2000/svg">
<path d="M20.3144 10.5615C20.3178 12.8089 19.6289 14.9982 18.3486 16.8086C18.4111 16.8574 18.4705 16.9094 18.5283 16.9679L24.5445 23.2247C24.8377 23.5295 25.0025 23.9428 25.0027 24.3739C25.0028 24.805 24.8383 25.2186 24.5453 25.5235C24.2523 25.8284 23.8548 25.9998 23.4403 26C23.0257 26.0002 22.6281 25.829 22.3349 25.5243L16.3187 19.2675C16.2622 19.2094 16.2099 19.1469 16.1625 19.0806H16.1656C14.3245 20.4854 12.082 21.204 9.79995 21.1204C7.51792 21.0369 5.32952 20.1561 3.58795 18.6202C1.84639 17.0843 0.653252 14.9829 0.201117 12.6551C-0.251018 10.3274 0.0642249 7.90907 1.09597 5.79052C2.12771 3.67198 3.81576 1.9768 5.88767 0.978571C7.95958 -0.0196589 10.2945 -0.262697 12.5155 0.288681C14.7366 0.840059 16.7142 2.15368 18.1292 4.01755C19.5442 5.88141 20.314 8.18676 20.3144 10.5615ZM10.1572 19.4999C11.2859 19.4999 12.4035 19.2687 13.4462 18.8195C14.4889 18.3703 15.4364 17.7119 16.2345 16.8819C17.0326 16.0519 17.6656 15.0665 18.0975 13.9821C18.5295 12.8976 18.7518 11.7353 18.7518 10.5615C18.7518 9.38774 18.5295 8.22544 18.0975 7.14099C17.6656 6.05654 17.0326 5.07119 16.2345 4.24119C15.4364 3.41118 14.4889 2.75279 13.4462 2.3036C12.4035 1.85441 11.2859 1.62321 10.1572 1.62321C7.87779 1.62321 5.69174 2.56492 4.07994 4.24119C2.46815 5.91745 1.56266 8.19095 1.56266 10.5615C1.56266 12.9321 2.46815 15.2056 4.07994 16.8819C5.69174 18.5582 7.87779 19.4999 10.1572 19.4999Z" fill="#1D1D1D"/>
<path d="M13 10.6166C13 12.5711 11.933 13.65 10 13.65C8.067 13.65 7 12.5711 7 10.6166C7 8.66217 8.067 7.58331 10 7.58331C11.933 7.58331 13 8.66217 13 10.6166Z" fill="#E6BC4F"/>
<path d="M9.32864 10.3828C9.36542 10.2144 9.44854 10.061 9.56771 9.94173C9.60436 9.9036 9.64717 9.87259 9.69414 9.85014L9.69874 9.84893C9.84752 9.87557 10.0003 9.83978 10.1241 9.74927C10.248 9.65877 10.3329 9.52082 10.3605 9.36523C10.3881 9.20964 10.3562 9.0489 10.2718 8.91774C10.1873 8.78658 10.057 8.69552 9.90908 8.66424C9.44702 8.5618 9.03554 8.81248 8.78268 9.06195C8.51027 9.3283 8.28844 9.71034 8.20338 10.1346C8.18784 10.212 8.18699 10.292 8.20091 10.3698C8.21482 10.4476 8.24321 10.5218 8.28446 10.5881C8.32571 10.6544 8.37901 10.7115 8.44133 10.7562C8.50364 10.8009 8.57374 10.8323 8.64762 10.8486C8.72151 10.8649 8.79773 10.8658 8.87194 10.8512C8.94615 10.8366 9.0169 10.8069 9.08013 10.7636C9.14337 10.7204 9.19787 10.6645 9.2405 10.5991C9.28314 10.5338 9.31309 10.4603 9.32864 10.3828ZM10.0252 14.4563C10.5233 14.4563 11.0165 14.3534 11.4767 14.1536C11.9369 13.9537 12.355 13.6608 12.7072 13.2915C13.0594 12.9221 13.3388 12.4837 13.5294 12.0012C13.72 11.5187 13.8182 11.0015 13.8182 10.4792C13.8182 9.95696 13.72 9.4398 13.5294 8.95728C13.3388 8.47476 13.0594 8.03632 12.7072 7.66702C12.355 7.29771 11.9369 7.00477 11.4767 6.8049C11.0165 6.60503 10.5233 6.50216 10.0252 6.50216C9.0192 6.50216 8.05444 6.92117 7.34312 7.66702C6.6318 8.41287 6.23218 9.42445 6.23218 10.4792C6.23218 11.534 6.6318 12.5456 7.34312 13.2915C8.05444 14.0373 9.0192 14.4563 10.0252 14.4563ZM10.0252 13.2511C9.32404 13.2511 8.65163 12.9591 8.15586 12.4393C7.66009 11.9194 7.38157 11.2144 7.38157 10.4792C7.38157 9.74408 7.66009 9.03904 8.15586 8.51921C8.65163 7.99937 9.32404 7.70734 10.0252 7.70734C10.7263 7.70734 11.3987 7.99937 11.8945 8.51921C12.3902 9.03904 12.6688 9.74408 12.6688 10.4792C12.6688 11.2144 12.3902 11.9194 11.8945 12.4393C11.3987 12.9591 10.7263 13.2511 10.0252 13.2511ZM11.0631 2.89146C11.9665 2.95292 12.8193 3.23493 13.4354 3.64228C14.817 4.55701 15.3239 5.39581 15.7652 6.20207C16.2066 7.01074 16.6686 8.04117 16.6686 9.63562C16.6686 10.3828 16.5893 10.7564 16.5238 11.0698L16.5123 11.124C16.4572 11.3831 16.4123 11.6193 16.4595 12.2255C16.5114 13.0434 16.3734 13.8622 16.0572 14.6118C15.7457 15.3626 15.2514 16.0652 14.5825 16.5039C13.2228 17.3957 11.5814 17.5886 10.0424 16.9438C9.35852 16.657 9.14818 16.6003 8.9183 16.5847C8.74169 16.5778 8.56486 16.5798 8.38843 16.5907H8.38154C8.13787 16.6003 7.82064 16.6136 7.38157 16.6136C5.39313 16.6136 4.07133 15.3638 3.40008 14.0104C2.42195 12.0375 2.43919 9.03303 4.61154 7.2337C5.2529 6.70343 5.42416 6.54193 5.62415 6.19243C5.98391 5.56454 6.32873 5.06559 6.7494 4.63294C7.17123 4.19907 7.64938 3.85198 8.25511 3.50369C9.15278 2.98546 10.155 2.82879 11.0631 2.89146ZM10.9872 4.09422C10.2516 4.04361 9.47691 4.17376 8.80796 4.55942C8.26315 4.87277 7.87926 5.1596 7.55513 5.49343C7.22755 5.82847 6.9402 6.23461 6.61033 6.81189C6.2885 7.3735 5.95862 7.65551 5.32301 8.17976C3.70122 9.52353 3.62077 11.8423 4.42074 13.4548C4.94486 14.513 5.92299 15.4072 7.38157 15.4072C7.7988 15.4072 8.09879 15.3963 8.34016 15.3867H8.36085C8.58958 15.3771 8.79302 15.3686 8.98957 15.3819C9.42404 15.4108 9.78839 15.5398 10.4688 15.8254C11.6539 16.3219 12.9113 16.1773 13.9745 15.4819C14.3951 15.2047 14.7572 14.7227 15.0043 14.1297C15.2491 13.5392 15.3583 12.8884 15.3147 12.3244C15.256 11.5844 15.3147 11.2264 15.3894 10.8661L15.402 10.8058C15.4595 10.5335 15.5192 10.2527 15.5192 9.63562C15.5192 8.3268 15.1537 7.50607 14.7675 6.80225C14.3814 6.09481 13.9894 5.43438 12.8216 4.66186C12.3906 4.37623 11.7297 4.14484 10.9872 4.09422Z" fill="#1D1D1D"/>
</svg>
