<svg width="20" height="20" viewBox="0 0 20 20" fill="none" xmlns="http://www.w3.org/2000/svg">
<path d="M15.289 16.955C16.7803 16.1256 17.3934 14.3325 16.799 12.7844C16.7656 12.6931 16.7685 12.5925 16.8071 12.5033C16.8457 12.4141 16.9171 12.3431 17.0065 12.305C17.1847 12.2311 17.3548 12.1389 17.514 12.03C18.0744 11.6453 18.4796 11.0737 18.6571 10.4176C18.8346 9.76141 18.7728 9.06351 18.4828 8.44875C18.2898 8.04032 18.0029 7.68341 17.6454 7.40726C17.2879 7.13111 16.8701 6.94359 16.4262 6.86005C15.9823 6.77651 15.5249 6.79933 15.0915 6.92664C14.6581 7.05396 14.261 7.28214 13.9328 7.5925C13.4831 6.83446 12.755 6.28213 11.9038 6.05328C11.0526 5.82443 10.1457 5.93719 9.37653 6.3675C8.36403 6.93 7.75778 7.9425 7.65778 9.01125C7.08903 8.94875 6.48903 9.055 5.95153 9.355C5.5507 9.57803 5.20959 9.89446 4.95716 10.2775C4.70473 10.6605 4.54843 11.0987 4.50153 11.555C4.37653 12.7113 3.72653 13.7488 2.70778 14.3175C2.43599 14.4692 2.19677 14.673 2.0038 14.9173C1.81082 15.1615 1.66788 15.4414 1.58313 15.7409C1.49839 16.0404 1.4735 16.3537 1.50991 16.6628C1.54631 16.9719 1.64328 17.2709 1.79528 17.5425C1.947 17.8143 2.15081 18.0535 2.39504 18.2465C2.63928 18.4395 2.91915 18.5824 3.21866 18.6671C3.51817 18.7519 3.83145 18.7768 4.14058 18.7404C4.44972 18.704 4.74865 18.607 5.02028 18.455C6.03278 17.8862 7.25778 17.88 8.30778 18.38C9.12028 18.7675 10.1015 18.7737 10.9453 18.2987C11.3828 18.055 11.7334 17.7112 11.9803 17.3088C12.0255 17.2353 12.0949 17.1798 12.1765 17.1519C12.2582 17.1239 12.347 17.1253 12.4278 17.1556C13.3303 17.5069 14.3778 17.4612 15.289 16.955Z" fill="url(#paint0_linear_329_415)"/>
<g filter="url(#filter0_f_329_415)">
<path d="M14.8802 16.5243C16.2889 15.74 16.8683 14.0456 16.3064 12.5831C16.2389 12.4068 16.2802 12.1187 16.4539 12.0462C16.6224 11.9765 16.7833 11.8896 16.9339 11.7868C18.0264 11.0431 18.4652 9.67871 17.8983 8.48558C17.7159 8.09966 17.4446 7.76244 17.1068 7.50155C16.7689 7.24065 16.3741 7.0635 15.9546 6.98459C15.535 6.90569 15.1028 6.92729 14.6933 7.04761C14.2837 7.16793 13.9085 7.38356 13.5983 7.67683C13.1732 6.9604 12.4851 6.4384 11.6806 6.22216C10.8761 6.00592 10.019 6.11256 9.29205 6.51933C8.83867 6.77231 8.45382 7.13205 8.17088 7.56736C7.88793 8.00267 7.71542 8.50042 7.6683 9.01746C7.11009 8.95565 6.54649 9.06924 6.0558 9.34246C5.67709 9.55322 5.35481 9.85223 5.11631 10.2141C4.87781 10.576 4.73013 10.9901 4.6858 11.4212C4.56705 12.5137 3.9533 13.4943 2.9908 14.0318C2.73407 14.1753 2.5081 14.3679 2.32582 14.5987C2.14353 14.8295 2.00848 15.094 1.92839 15.377C1.8483 15.6599 1.82473 15.9559 1.85903 16.248C1.89333 16.5401 1.98483 16.8226 2.1283 17.0793C2.27177 17.3361 2.4644 17.562 2.6952 17.7443C2.92599 17.9266 3.19043 18.0617 3.47342 18.1417C3.75641 18.2218 4.0524 18.2454 4.34449 18.2111C4.63659 18.1768 4.91907 18.0853 5.1758 17.9418C6.13205 17.4043 7.29017 17.3981 8.28205 17.8706C8.67309 18.0594 9.10392 18.151 9.53795 18.1378C9.97198 18.1245 10.3964 18.0067 10.7752 17.7943C11.176 17.5717 11.5127 17.2494 11.7527 16.8587C11.7955 16.7891 11.8612 16.7365 11.9385 16.7101C12.0158 16.6836 12.0999 16.6849 12.1764 16.7137C12.6132 16.8832 13.0821 16.954 13.5495 16.9213C14.0169 16.8886 14.4712 16.753 14.8802 16.5243Z" fill="url(#paint1_linear_329_415)"/>
</g>
<g filter="url(#filter1_f_329_415)">
<path d="M15.3076 7.37192C16.147 7.09067 17.4189 7.65942 17.9545 8.62629C18.3532 9.34567 18.3939 10.5463 17.2145 11.6475" stroke="url(#paint2_linear_329_415)" stroke-width="0.9375"/>
</g>
<path d="M3.05149 4.71812C3.88149 3.22687 5.67524 2.61375 7.22274 3.20812C7.31401 3.24153 7.41463 3.23862 7.50383 3.20001C7.59303 3.1614 7.664 3.09003 7.70212 3.00062C7.77605 2.82243 7.86821 2.65236 7.97712 2.49312C8.36183 1.93274 8.93341 1.52754 9.58956 1.35005C10.2457 1.17255 10.9436 1.23435 11.5584 1.52437C11.9668 1.71731 12.3237 2.00428 12.5999 2.36175C12.876 2.71923 13.0635 3.13704 13.1471 3.58097C13.2306 4.02489 13.2078 4.48229 13.0805 4.91569C12.9532 5.34909 12.725 5.74616 12.4146 6.07437C13.1727 6.52409 13.725 7.25217 13.9538 8.10334C14.1827 8.95451 14.0699 9.86141 13.6396 10.6306C13.372 11.1105 12.9913 11.5179 12.5306 11.8174C12.0699 12.1169 11.5431 12.2995 10.9959 12.3494C11.0584 12.9181 10.9521 13.5181 10.6521 14.0556C10.4291 14.4565 10.1126 14.7976 9.72965 15.05C9.34666 15.3024 8.90841 15.4587 8.45212 15.5056C7.29587 15.6306 6.25837 16.2806 5.68962 17.2994C5.53789 17.5712 5.33408 17.8104 5.08985 18.0034C4.84562 18.1963 4.56575 18.3393 4.26624 18.424C3.96672 18.5088 3.65345 18.5336 3.34431 18.4972C3.03518 18.4608 2.73625 18.3639 2.46462 18.2119C2.19283 18.0601 1.95361 17.8563 1.76063 17.6121C1.56766 17.3679 1.42471 17.088 1.33997 16.7885C1.25522 16.489 1.23034 16.1757 1.26674 15.8666C1.30314 15.5574 1.40012 15.2585 1.55212 14.9869C2.12087 13.9744 2.12712 12.7494 1.62712 11.6994C1.42757 11.2856 1.33076 10.8298 1.3449 10.3707C1.35905 9.91153 1.48373 9.46256 1.70837 9.06187C1.95087 8.62625 2.24524 8.27437 2.62712 8.0275C2.70003 7.98049 2.75486 7.91016 2.78267 7.82798C2.81048 7.7458 2.80962 7.65662 2.78024 7.575C2.44149 6.67375 2.54587 5.62875 3.05149 4.71812Z" fill="#457420"/>
<g filter="url(#filter2_f_329_415)">
<path d="M3.41379 4.91251C4.19254 3.50001 5.94942 3.16688 7.40129 3.73001C7.80879 3.88751 7.90879 3.42063 8.12942 3.11501C9.05442 1.83063 10.2469 1.44313 11.4313 2.01188C12.8507 2.69251 13.4175 4.54438 12.6669 5.90563C12.5597 6.10144 12.4275 6.28253 12.2738 6.44438C13.7463 7.32626 14.2675 9.23813 13.4238 10.76C13.1745 11.2133 12.8181 11.5987 12.3856 11.8825C11.953 12.1663 11.4576 12.3399 10.9425 12.3881C11.0041 12.9472 10.8914 13.5117 10.62 14.0044C10.4122 14.3829 10.1159 14.7056 9.75627 14.9447C9.39667 15.1838 8.98452 15.3323 8.55504 15.3775C7.47004 15.4963 6.49629 16.1119 5.96254 17.0769C5.82186 17.3336 5.63163 17.5598 5.40288 17.7425C5.17413 17.9252 4.9114 18.0606 4.62992 18.141C4.34844 18.2214 4.05381 18.2452 3.76308 18.2109C3.47236 18.1766 3.19134 18.0849 2.93629 17.9413C1.86254 17.3375 1.48129 15.97 2.08004 14.8863C2.61379 13.9275 2.61942 12.7675 2.15004 11.7725C1.96273 11.3802 1.87193 10.9487 1.88519 10.5142C1.89846 10.0796 2.01541 9.65456 2.22629 9.27438C2.45442 8.86188 2.80504 8.61313 3.16379 8.37876C3.30317 8.28813 3.57379 7.93001 3.51567 7.77313C3.19692 6.91938 2.93942 5.77563 3.41379 4.91251Z" fill="url(#paint3_linear_329_415)"/>
</g>
<g filter="url(#filter3_f_329_415)">
<path d="M14.849 14.1962C16.004 13.0312 16.0915 11.1981 15.274 9.82494C15.1705 9.65771 15.1357 9.45688 15.1771 9.2646C15.2185 9.07232 15.3327 8.90354 15.4959 8.79369C15.5746 8.73869 15.6459 8.67744 15.7034 8.60681C16.1334 6.71869 13.2421 4.02306 11.4152 4.49931C11.4013 4.51351 11.3877 4.5281 11.3746 4.54306C11.0971 4.85556 10.6371 4.94619 10.2809 4.73056C8.91648 3.90431 7.08961 3.97931 5.93586 5.14306C5.26336 5.82181 4.91586 6.77681 4.90336 7.69369C4.89836 8.07681 4.63148 8.43619 4.28898 8.60244C3.87461 8.80369 3.51086 9.12181 3.21086 9.42431C2.49836 10.1368 2.35023 11.0162 2.51211 11.9381C4.33086 22.4293 0.888983 16.2749 8.37648 17.5881C9.08336 17.7124 10.0809 17.5243 10.7871 16.8118C11.0809 16.5162 11.3571 16.1731 11.5446 15.8068C11.7096 15.4837 12.0496 15.2474 12.409 15.2443C13.294 15.2368 14.1665 14.8843 14.849 14.1962Z" fill="url(#paint4_linear_329_415)"/>
</g>
<g filter="url(#filter4_f_329_415)">
<path d="M12.7541 4.14062C12.8616 3.26187 12.051 2.12875 10.9966 1.79687C10.2116 1.55 9.02783 1.75 8.18408 3.125" stroke="url(#paint5_linear_329_415)" stroke-width="0.9375"/>
</g>
<g filter="url(#filter5_f_329_415)">
<path d="M1.77776 11.3962C1.37151 10.2243 1.63089 9.77557 1.83651 9.4137C1.75526 10.0781 1.70714 10.3281 1.91464 11.1818C2.05714 11.7712 2.45151 12.6362 2.45151 13.5743C2.45151 14.4243 1.65089 15.3906 1.65089 15.3906C1.65089 15.3906 2.01214 14.7556 2.23651 13.5743C2.22651 12.8962 1.96651 11.9412 1.77776 11.3962Z" fill="#688555"/>
</g>
<path d="M14.9029 13.7306C16.016 12.6169 16.101 10.865 15.3129 9.55251C15.2133 9.39269 15.1799 9.20036 15.2198 9.01633C15.2597 8.83231 15.3698 8.67108 15.5266 8.56688C15.6022 8.51438 15.671 8.45563 15.7266 8.38875C16.6204 7.32 16.5341 5.74751 15.6154 4.69751C14.5154 3.44126 12.7547 3.30063 11.5922 4.46313L11.5529 4.50438C11.286 4.80313 10.8422 4.88938 10.4985 4.68313C9.18287 3.89376 7.42099 3.96563 6.30912 5.07813C5.66037 5.72626 5.32599 6.63938 5.31349 7.51563C5.30912 7.88188 5.05099 8.22563 4.72099 8.38438C4.32224 8.57688 3.97099 8.88063 3.68224 9.17C2.99474 9.85125 2.85162 10.6913 3.00787 11.5725C3.20787 12.7163 2.91849 13.8525 2.09974 14.6775C1.17474 15.6025 1.07599 16.9419 2.16412 18.03C3.08912 18.955 4.53412 18.8644 5.45912 17.9394C6.28412 17.1144 7.51224 16.7725 8.66224 16.9725C9.34412 17.0913 10.306 16.9119 10.9872 16.2306C11.2691 15.9481 11.536 15.62 11.7166 15.2694C11.876 14.9613 12.2041 14.735 12.5504 14.7319C13.4035 14.7256 14.2454 14.3881 14.9029 13.7306Z" fill="url(#paint6_linear_329_415)"/>
<g filter="url(#filter6_f_329_415)">
<path d="M14.4891 13.5556C15.5266 12.5181 15.5978 10.7931 14.8641 9.56998C14.5591 9.06311 14.8753 8.78248 15.1535 8.44748C15.986 7.45186 16.0097 6.11873 15.1535 5.14123C14.1878 4.03811 12.6672 3.86061 11.6309 5.01936C11.3822 5.29811 10.7066 5.31936 10.3866 5.12748C9.16158 4.39248 7.62845 4.39373 6.5922 5.42998C5.98782 6.03373 5.66595 7.02561 5.6547 7.84186C5.6497 8.18311 5.4097 8.50311 5.10282 8.65123C4.73095 8.83061 4.30595 9.03748 4.03658 9.30748C3.39657 9.94186 3.31157 10.7419 3.4572 11.5625C3.64345 12.6281 3.63407 13.7825 2.87157 14.5506C2.05095 15.5175 1.74033 16.5837 2.75408 17.5975C3.61595 18.4594 4.66845 18.0369 5.65407 17.2269C6.42282 16.4581 7.60533 16.3894 8.67658 16.5756C9.31158 16.6862 10.2066 16.5194 10.8416 15.8844C11.1041 15.6212 11.3016 15.2312 11.4697 14.905C11.6178 14.6175 11.9235 14.4069 12.2466 14.4044C13.0409 14.3981 13.8766 14.1681 14.4891 13.5556Z" fill="url(#paint7_linear_329_415)"/>
</g>
<path fill-rule="evenodd" clip-rule="evenodd" d="M8.64224 7.10127C8.84849 7.03689 9.06724 7.15252 9.13099 7.35814L9.87661 9.75939L12.4379 7.19814C12.4737 7.16009 12.5168 7.12962 12.5646 7.10853C12.6124 7.08744 12.664 7.07616 12.7163 7.07536C12.7685 7.07456 12.8204 7.08426 12.8689 7.10388C12.9173 7.1235 12.9613 7.15264 12.9983 7.18957C13.0353 7.22651 13.0645 7.27049 13.0841 7.31891C13.1038 7.36734 13.1136 7.41921 13.1128 7.47147C13.1121 7.52373 13.1009 7.57532 13.0798 7.62316C13.0588 7.67101 13.0284 7.71414 12.9904 7.75002L10.4297 10.3113L12.836 11.0575C12.9349 11.0882 13.0177 11.1569 13.066 11.2486C13.1143 11.3402 13.1242 11.4473 13.0935 11.5463C13.0628 11.6452 12.9941 11.728 12.9024 11.7762C12.8108 11.8245 12.7037 11.8344 12.6047 11.8038L9.80474 10.9356L7.39224 13.3488L9.04849 13.8638C9.1437 13.8974 9.22219 13.9666 9.2675 14.0568C9.3128 14.1471 9.3214 14.2514 9.29149 14.3478C9.26157 14.4442 9.19548 14.5254 9.10706 14.5741C9.01864 14.6229 8.91477 14.6355 8.81724 14.6094L6.76724 13.9731L5.40911 15.3319C5.37284 15.3682 5.32977 15.3969 5.28237 15.4166C5.23497 15.4362 5.18417 15.4463 5.13286 15.4463C5.08156 15.4463 5.03076 15.4362 4.98336 15.4166C4.93596 15.3969 4.89289 15.3682 4.85661 15.3319C4.82034 15.2956 4.79156 15.2525 4.77193 15.2051C4.75229 15.1578 4.74219 15.1069 4.74219 15.0556C4.74219 15.0043 4.75229 14.9535 4.77193 14.9061C4.79156 14.8587 4.82034 14.8157 4.85661 14.7794L6.21474 13.4213L5.57849 11.3713C5.54782 11.2723 5.55773 11.1652 5.60602 11.0736C5.65431 10.9819 5.73703 10.9132 5.83599 10.8825C5.93495 10.8519 6.04204 10.8618 6.13369 10.91C6.22535 10.9583 6.29407 11.0411 6.32474 11.14L6.83911 12.7963L9.25224 10.3838L8.38474 7.59002C8.36955 7.54102 8.36417 7.48951 8.36889 7.43843C8.37362 7.38735 8.38835 7.3377 8.41226 7.29231C8.43618 7.24693 8.46879 7.2067 8.50825 7.17392C8.54771 7.14114 8.59324 7.11645 8.64224 7.10127Z" fill="url(#paint8_linear_329_415)"/>
<path fill-rule="evenodd" clip-rule="evenodd" d="M8.64224 7.10127C8.84849 7.03689 9.06724 7.15252 9.13099 7.35814L9.87661 9.75939L12.4379 7.19814C12.4737 7.16009 12.5168 7.12962 12.5646 7.10853C12.6124 7.08744 12.664 7.07616 12.7163 7.07536C12.7685 7.07456 12.8204 7.08426 12.8689 7.10388C12.9173 7.1235 12.9613 7.15264 12.9983 7.18957C13.0353 7.22651 13.0645 7.27049 13.0841 7.31891C13.1038 7.36734 13.1136 7.41921 13.1128 7.47147C13.1121 7.52373 13.1009 7.57532 13.0798 7.62316C13.0588 7.67101 13.0284 7.71414 12.9904 7.75002L10.4297 10.3113L12.836 11.0575C12.9349 11.0882 13.0177 11.1569 13.066 11.2486C13.1143 11.3402 13.1242 11.4473 13.0935 11.5463C13.0628 11.6452 12.9941 11.728 12.9024 11.7762C12.8108 11.8245 12.7037 11.8344 12.6047 11.8038L9.80474 10.9356L7.39224 13.3488L9.04849 13.8638C9.1437 13.8974 9.22219 13.9666 9.2675 14.0568C9.3128 14.1471 9.3214 14.2514 9.29149 14.3478C9.26157 14.4442 9.19548 14.5254 9.10706 14.5741C9.01864 14.6229 8.91477 14.6355 8.81724 14.6094L6.76724 13.9731L5.40911 15.3319C5.37284 15.3682 5.32977 15.3969 5.28237 15.4166C5.23497 15.4362 5.18417 15.4463 5.13286 15.4463C5.08156 15.4463 5.03076 15.4362 4.98336 15.4166C4.93596 15.3969 4.89289 15.3682 4.85661 15.3319C4.82034 15.2956 4.79156 15.2525 4.77193 15.2051C4.75229 15.1578 4.74219 15.1069 4.74219 15.0556C4.74219 15.0043 4.75229 14.9535 4.77193 14.9061C4.79156 14.8587 4.82034 14.8157 4.85661 14.7794L6.21474 13.4213L5.57849 11.3713C5.54782 11.2723 5.55773 11.1652 5.60602 11.0736C5.65431 10.9819 5.73703 10.9132 5.83599 10.8825C5.93495 10.8519 6.04204 10.8618 6.13369 10.91C6.22535 10.9583 6.29407 11.0411 6.32474 11.14L6.83911 12.7963L9.25224 10.3838L8.38474 7.59002C8.36955 7.54102 8.36417 7.48951 8.36889 7.43843C8.37362 7.38735 8.38835 7.3377 8.41226 7.29231C8.43618 7.24693 8.46879 7.2067 8.50825 7.17392C8.54771 7.14114 8.59324 7.11645 8.64224 7.10127Z" fill="url(#paint9_radial_329_415)"/>
<g filter="url(#filter7_f_329_415)">
<path d="M12.6372 7.54871L10.3516 9.84371" stroke="url(#paint10_linear_329_415)" stroke-width="1.25" stroke-linecap="round"/>
</g>
<g filter="url(#filter8_f_329_415)">
<path d="M12.7407 11.4181L9.65137 10.4475" stroke="url(#paint11_linear_329_415)" stroke-width="1.25" stroke-linecap="round"/>
</g>
<g filter="url(#filter9_f_329_415)">
<path d="M5.84277 11.2644L6.55277 13.5707" stroke="url(#paint12_linear_329_415)" stroke-width="0.9375" stroke-linecap="round"/>
</g>
<g filter="url(#filter10_f_329_415)">
<path d="M8.96695 14.2644L6.6582 13.5663" stroke="url(#paint13_linear_329_415)" stroke-width="0.9375" stroke-linecap="round"/>
</g>
<g filter="url(#filter11_f_329_415)">
<path d="M5.10791 15.0688L9.92229 10.3125" stroke="url(#paint14_linear_329_415)" stroke-width="1.25" stroke-linecap="round"/>
</g>
<g filter="url(#filter12_f_329_415)">
<path d="M12.9888 4.04369C14.7075 3.65306 16.1919 4.74744 15.9281 6.63181C15.5888 4.87994 14.7875 4.20619 12.9888 4.04431V4.04369Z" fill="#BFEE84"/>
</g>
<g filter="url(#filter13_f_329_415)">
<path d="M15.186 12.715C15.186 12.715 15.6448 10.3713 14.766 9.1013C14.4923 8.96505 14.1848 9.0963 14.356 9.28692C15.3423 10.3907 15.186 12.715 15.186 12.715Z" fill="url(#paint15_linear_329_415)"/>
</g>
<g filter="url(#filter14_f_329_415)">
<path d="M15.186 12.715C15.186 12.715 15.6448 10.3713 14.766 9.1013C14.4923 8.96505 14.1848 9.0963 14.356 9.28692C15.3423 10.3907 15.186 12.715 15.186 12.715Z" fill="url(#paint16_linear_329_415)"/>
</g>
<g filter="url(#filter15_f_329_415)">
<path d="M7.50537 4.57752C7.50537 4.57752 9.8785 4.30564 11.0741 5.28189C11.1891 5.56564 11.0341 5.86189 10.8566 5.67627C9.83475 4.60564 7.50537 4.57752 7.50537 4.57752Z" fill="url(#paint17_linear_329_415)"/>
</g>
<g filter="url(#filter16_f_329_415)">
<path d="M7.50537 4.57752C7.50537 4.57752 9.8785 4.30564 11.0741 5.28189C11.1891 5.56564 11.0341 5.86189 10.8566 5.67627C9.83475 4.60564 7.50537 4.57752 7.50537 4.57752Z" fill="url(#paint18_linear_329_415)"/>
</g>
<g filter="url(#filter17_f_329_415)">
<path d="M6.97945 4.97498C6.97945 4.97498 5.45695 6.73123 5.5257 8.2456C5.6782 8.49435 5.93632 8.5606 5.88382 8.31685C5.55007 6.77623 6.97945 4.97498 6.97945 4.97498Z" fill="url(#paint19_linear_329_415)"/>
</g>
<g filter="url(#filter18_f_329_415)">
<path d="M14.9806 13.0081C14.9806 13.0081 13.8969 14.7493 12.2406 14.5412C11.9844 14.3749 11.8656 14.0474 12.1194 14.0137C13.6619 13.8087 14.9806 13.0081 14.9806 13.0081Z" fill="url(#paint20_linear_329_415)"/>
</g>
<g filter="url(#filter19_f_329_415)">
<path d="M3.61331 10.0394C3.37893 10.6644 3.50206 11.4726 3.61331 12.2657C3.76956 13.3788 3.04081 14.1732 2.73456 14.6094C2.25956 15.1432 1.48643 16.6113 2.31456 17.6269C3.14268 18.6426 4.38831 18.1513 4.70706 17.9301" stroke="url(#paint21_linear_329_415)" stroke-width="0.625"/>
</g>
<g filter="url(#filter20_f_329_415)">
<path d="M5.08783 14.7412C4.98783 14.8287 4.75846 15.0418 4.96596 15.2393C5.16158 15.425 5.31783 15.2393 5.45971 15.1025" stroke="url(#paint22_radial_329_415)" stroke-width="0.125"/>
</g>
<g filter="url(#filter21_f_329_415)">
<path d="M6.64608 12.9493L6.11296 11.1812C6.09461 11.1305 6.05767 11.0887 6.00962 11.0642C5.96158 11.0397 5.90602 11.0344 5.85421 11.0493C5.64921 11.0981 5.68358 11.2837 5.70296 11.3618C5.71858 11.4243 6.12296 12.7112 6.32796 13.3681" stroke="url(#paint23_linear_329_415)" stroke-width="0.125"/>
</g>
<g filter="url(#filter22_f_329_415)">
<path d="M9.75631 9.89752L8.96756 7.40315C8.94921 7.35244 8.91227 7.3106 8.86423 7.28611C8.81618 7.26162 8.76062 7.25632 8.70881 7.27127C8.50318 7.32002 8.53756 7.50565 8.55693 7.58377C8.57256 7.64627 9.17506 9.64502 9.38006 10.3025" stroke="url(#paint24_linear_329_415)" stroke-width="0.125"/>
</g>
<g filter="url(#filter23_f_329_415)">
<path d="M10.2938 10.3938L12.7788 11.2119C12.8291 11.231 12.8703 11.2684 12.8941 11.3167C12.9178 11.3649 12.9224 11.4204 12.9069 11.4719C12.8563 11.6769 12.6707 11.6407 12.5932 11.62C12.5307 11.6038 10.5388 10.9775 9.88379 10.765" stroke="url(#paint25_linear_329_415)" stroke-width="0.125"/>
</g>
<g filter="url(#filter24_f_329_415)">
<path d="M7.22984 13.5275L8.99547 14.0662C9.0462 14.0847 9.08801 14.1218 9.11238 14.17C9.13676 14.2181 9.14189 14.2738 9.12672 14.3256C9.07672 14.53 8.89109 14.4956 8.81297 14.4756C8.75047 14.46 7.46547 14.0506 6.80859 13.8431" stroke="url(#paint26_linear_329_415)" stroke-width="0.125"/>
</g>
<g filter="url(#filter25_f_329_415)">
<path d="M7.67563 3.88691L7.53875 3.41816C5 2.73441 4.21875 3.88691 4.21875 3.88691C5.89875 3.41816 6.91438 3.71128 7.67563 3.88691Z" fill="url(#paint27_linear_329_415)"/>
</g>
<g filter="url(#filter26_f_329_415)">
<path d="M15.9751 12.475L16.447 12.6025C17.1807 15.1275 16.0445 15.9319 16.0445 15.9319C16.4795 14.2431 16.1663 13.2337 15.9757 12.4756L15.9751 12.475Z" fill="url(#paint28_linear_329_415)"/>
</g>
<g filter="url(#filter27_f_329_415)">
<path d="M3.39692 7.87002H3.00942C2.39255 5.78252 3.34005 4.86377 3.34005 4.86377C2.75692 5.76252 3.16505 7.30439 3.39692 7.87002Z" fill="url(#paint29_linear_329_415)"/>
</g>
<defs>
<filter id="filter0_f_329_415" x="1.21875" y="5.48767" width="17.5527" height="13.3638" filterUnits="userSpaceOnUse" color-interpolation-filters="sRGB">
<feFlood flood-opacity="0" result="BackgroundImageFix"/>
<feBlend mode="normal" in="SourceGraphic" in2="BackgroundImageFix" result="shape"/>
<feGaussianBlur stdDeviation="0.3125" result="effect1_foregroundBlur_329_415"/>
</filter>
<filter id="filter1_f_329_415" x="13.9087" y="5.58105" width="6.0166" height="7.65906" filterUnits="userSpaceOnUse" color-interpolation-filters="sRGB">
<feFlood flood-opacity="0" result="BackgroundImageFix"/>
<feBlend mode="normal" in="SourceGraphic" in2="BackgroundImageFix" result="shape"/>
<feGaussianBlur stdDeviation="0.625" result="effect1_foregroundBlur_329_415"/>
</filter>
<filter id="filter2_f_329_415" x="1.17188" y="1.13159" width="13.2812" height="17.7195" filterUnits="userSpaceOnUse" color-interpolation-filters="sRGB">
<feFlood flood-opacity="0" result="BackgroundImageFix"/>
<feBlend mode="normal" in="SourceGraphic" in2="BackgroundImageFix" result="shape"/>
<feGaussianBlur stdDeviation="0.3125" result="effect1_foregroundBlur_329_415"/>
</filter>
<filter id="filter3_f_329_415" x="1.20264" y="2.92932" width="15.8608" height="16.5281" filterUnits="userSpaceOnUse" color-interpolation-filters="sRGB">
<feFlood flood-opacity="0" result="BackgroundImageFix"/>
<feBlend mode="normal" in="SourceGraphic" in2="BackgroundImageFix" result="shape"/>
<feGaussianBlur stdDeviation="0.625" result="effect1_foregroundBlur_329_415"/>
</filter>
<filter id="filter4_f_329_415" x="6.53467" y="-0.0125732" width="7.94775" height="5.46008" filterUnits="userSpaceOnUse" color-interpolation-filters="sRGB">
<feFlood flood-opacity="0" result="BackgroundImageFix"/>
<feBlend mode="normal" in="SourceGraphic" in2="BackgroundImageFix" result="shape"/>
<feGaussianBlur stdDeviation="0.625" result="effect1_foregroundBlur_329_415"/>
</filter>
<filter id="filter5_f_329_415" x="0.938477" y="8.7887" width="2.13818" height="7.22693" filterUnits="userSpaceOnUse" color-interpolation-filters="sRGB">
<feFlood flood-opacity="0" result="BackgroundImageFix"/>
<feBlend mode="normal" in="SourceGraphic" in2="BackgroundImageFix" result="shape"/>
<feGaussianBlur stdDeviation="0.3125" result="effect1_foregroundBlur_329_415"/>
</filter>
<filter id="filter6_f_329_415" x="1.80322" y="3.91589" width="14.2959" height="14.4696" filterUnits="userSpaceOnUse" color-interpolation-filters="sRGB">
<feFlood flood-opacity="0" result="BackgroundImageFix"/>
<feBlend mode="normal" in="SourceGraphic" in2="BackgroundImageFix" result="shape"/>
<feGaussianBlur stdDeviation="0.15625" result="effect1_foregroundBlur_329_415"/>
</filter>
<filter id="filter7_f_329_415" x="9.41406" y="6.61121" width="4.16064" height="4.17004" filterUnits="userSpaceOnUse" color-interpolation-filters="sRGB">
<feFlood flood-opacity="0" result="BackgroundImageFix"/>
<feBlend mode="normal" in="SourceGraphic" in2="BackgroundImageFix" result="shape"/>
<feGaussianBlur stdDeviation="0.15625" result="effect1_foregroundBlur_329_415"/>
</filter>
<filter id="filter8_f_329_415" x="8.71387" y="9.50989" width="4.96436" height="2.84595" filterUnits="userSpaceOnUse" color-interpolation-filters="sRGB">
<feFlood flood-opacity="0" result="BackgroundImageFix"/>
<feBlend mode="normal" in="SourceGraphic" in2="BackgroundImageFix" result="shape"/>
<feGaussianBlur stdDeviation="0.15625" result="effect1_foregroundBlur_329_415"/>
</filter>
<filter id="filter9_f_329_415" x="5.06152" y="10.483" width="2.27246" height="3.86902" filterUnits="userSpaceOnUse" color-interpolation-filters="sRGB">
<feFlood flood-opacity="0" result="BackgroundImageFix"/>
<feBlend mode="normal" in="SourceGraphic" in2="BackgroundImageFix" result="shape"/>
<feGaussianBlur stdDeviation="0.15625" result="effect1_foregroundBlur_329_415"/>
</filter>
<filter id="filter10_f_329_415" x="5.87695" y="12.7849" width="3.87158" height="2.26086" filterUnits="userSpaceOnUse" color-interpolation-filters="sRGB">
<feFlood flood-opacity="0" result="BackgroundImageFix"/>
<feBlend mode="normal" in="SourceGraphic" in2="BackgroundImageFix" result="shape"/>
<feGaussianBlur stdDeviation="0.15625" result="effect1_foregroundBlur_329_415"/>
</filter>
<filter id="filter11_f_329_415" x="4.17041" y="9.375" width="6.68945" height="6.63123" filterUnits="userSpaceOnUse" color-interpolation-filters="sRGB">
<feFlood flood-opacity="0" result="BackgroundImageFix"/>
<feBlend mode="normal" in="SourceGraphic" in2="BackgroundImageFix" result="shape"/>
<feGaussianBlur stdDeviation="0.15625" result="effect1_foregroundBlur_329_415"/>
</filter>
<filter id="filter12_f_329_415" x="12.3638" y="3.33997" width="4.21973" height="3.91687" filterUnits="userSpaceOnUse" color-interpolation-filters="sRGB">
<feFlood flood-opacity="0" result="BackgroundImageFix"/>
<feBlend mode="normal" in="SourceGraphic" in2="BackgroundImageFix" result="shape"/>
<feGaussianBlur stdDeviation="0.3125" result="effect1_foregroundBlur_329_415"/>
</filter>
<filter id="filter13_f_329_415" x="13.6816" y="8.42017" width="2.24902" height="4.91992" filterUnits="userSpaceOnUse" color-interpolation-filters="sRGB">
<feFlood flood-opacity="0" result="BackgroundImageFix"/>
<feBlend mode="normal" in="SourceGraphic" in2="BackgroundImageFix" result="shape"/>
<feGaussianBlur stdDeviation="0.3125" result="effect1_foregroundBlur_329_415"/>
</filter>
<filter id="filter14_f_329_415" x="13.6816" y="8.42017" width="2.24902" height="4.91992" filterUnits="userSpaceOnUse" color-interpolation-filters="sRGB">
<feFlood flood-opacity="0" result="BackgroundImageFix"/>
<feBlend mode="normal" in="SourceGraphic" in2="BackgroundImageFix" result="shape"/>
<feGaussianBlur stdDeviation="0.3125" result="effect1_foregroundBlur_329_415"/>
</filter>
<filter id="filter15_f_329_415" x="6.88037" y="3.91772" width="4.8584" height="2.44141" filterUnits="userSpaceOnUse" color-interpolation-filters="sRGB">
<feFlood flood-opacity="0" result="BackgroundImageFix"/>
<feBlend mode="normal" in="SourceGraphic" in2="BackgroundImageFix" result="shape"/>
<feGaussianBlur stdDeviation="0.3125" result="effect1_foregroundBlur_329_415"/>
</filter>
<filter id="filter16_f_329_415" x="6.88037" y="3.91772" width="4.8584" height="2.44141" filterUnits="userSpaceOnUse" color-interpolation-filters="sRGB">
<feFlood flood-opacity="0" result="BackgroundImageFix"/>
<feBlend mode="normal" in="SourceGraphic" in2="BackgroundImageFix" result="shape"/>
<feGaussianBlur stdDeviation="0.3125" result="effect1_foregroundBlur_329_415"/>
</filter>
<filter id="filter17_f_329_415" x="4.89844" y="4.34998" width="2.70605" height="4.74451" filterUnits="userSpaceOnUse" color-interpolation-filters="sRGB">
<feFlood flood-opacity="0" result="BackgroundImageFix"/>
<feBlend mode="normal" in="SourceGraphic" in2="BackgroundImageFix" result="shape"/>
<feGaussianBlur stdDeviation="0.3125" result="effect1_foregroundBlur_329_415"/>
</filter>
<filter id="filter18_f_329_415" x="11.3535" y="12.3831" width="4.25195" height="2.80042" filterUnits="userSpaceOnUse" color-interpolation-filters="sRGB">
<feFlood flood-opacity="0" result="BackgroundImageFix"/>
<feBlend mode="normal" in="SourceGraphic" in2="BackgroundImageFix" result="shape"/>
<feGaussianBlur stdDeviation="0.3125" result="effect1_foregroundBlur_329_415"/>
</filter>
<filter id="filter19_f_329_415" x="1.01172" y="9.30469" width="4.49854" height="9.87769" filterUnits="userSpaceOnUse" color-interpolation-filters="sRGB">
<feFlood flood-opacity="0" result="BackgroundImageFix"/>
<feBlend mode="normal" in="SourceGraphic" in2="BackgroundImageFix" result="shape"/>
<feGaussianBlur stdDeviation="0.3125" result="effect1_foregroundBlur_329_415"/>
</filter>
<filter id="filter20_f_329_415" x="4.69434" y="14.5692" width="0.933594" height="0.935791" filterUnits="userSpaceOnUse" color-interpolation-filters="sRGB">
<feFlood flood-opacity="0" result="BackgroundImageFix"/>
<feBlend mode="normal" in="SourceGraphic" in2="BackgroundImageFix" result="shape"/>
<feGaussianBlur stdDeviation="0.0625" result="effect1_foregroundBlur_329_415"/>
</filter>
<filter id="filter21_f_329_415" x="5.50049" y="10.8535" width="1.33057" height="2.6582" filterUnits="userSpaceOnUse" color-interpolation-filters="sRGB">
<feFlood flood-opacity="0" result="BackgroundImageFix"/>
<feBlend mode="normal" in="SourceGraphic" in2="BackgroundImageFix" result="shape"/>
<feGaussianBlur stdDeviation="0.0625" result="effect1_foregroundBlur_329_415"/>
</filter>
<filter id="filter22_f_329_415" x="8.35449" y="7.07544" width="1.58643" height="3.37073" filterUnits="userSpaceOnUse" color-interpolation-filters="sRGB">
<feFlood flood-opacity="0" result="BackgroundImageFix"/>
<feBlend mode="normal" in="SourceGraphic" in2="BackgroundImageFix" result="shape"/>
<feGaussianBlur stdDeviation="0.0625" result="effect1_foregroundBlur_329_415"/>
</filter>
<filter id="filter23_f_329_415" x="9.73975" y="10.2095" width="3.36377" height="1.6145" filterUnits="userSpaceOnUse" color-interpolation-filters="sRGB">
<feFlood flood-opacity="0" result="BackgroundImageFix"/>
<feBlend mode="normal" in="SourceGraphic" in2="BackgroundImageFix" result="shape"/>
<feGaussianBlur stdDeviation="0.0625" result="effect1_foregroundBlur_329_415"/>
</filter>
<filter id="filter24_f_329_415" x="6.66455" y="13.3427" width="2.6582" height="1.33582" filterUnits="userSpaceOnUse" color-interpolation-filters="sRGB">
<feFlood flood-opacity="0" result="BackgroundImageFix"/>
<feBlend mode="normal" in="SourceGraphic" in2="BackgroundImageFix" result="shape"/>
<feGaussianBlur stdDeviation="0.0625" result="effect1_foregroundBlur_329_415"/>
</filter>
<filter id="filter25_f_329_415" x="3.59375" y="2.57642" width="4.70703" height="1.93555" filterUnits="userSpaceOnUse" color-interpolation-filters="sRGB">
<feFlood flood-opacity="0" result="BackgroundImageFix"/>
<feBlend mode="normal" in="SourceGraphic" in2="BackgroundImageFix" result="shape"/>
<feGaussianBlur stdDeviation="0.3125" result="effect1_foregroundBlur_329_415"/>
</filter>
<filter id="filter26_f_329_415" x="15.3501" y="11.85" width="1.96875" height="4.70691" filterUnits="userSpaceOnUse" color-interpolation-filters="sRGB">
<feFlood flood-opacity="0" result="BackgroundImageFix"/>
<feBlend mode="normal" in="SourceGraphic" in2="BackgroundImageFix" result="shape"/>
<feGaussianBlur stdDeviation="0.3125" result="effect1_foregroundBlur_329_415"/>
</filter>
<filter id="filter27_f_329_415" x="2.17578" y="4.23877" width="1.84619" height="4.25623" filterUnits="userSpaceOnUse" color-interpolation-filters="sRGB">
<feFlood flood-opacity="0" result="BackgroundImageFix"/>
<feBlend mode="normal" in="SourceGraphic" in2="BackgroundImageFix" result="shape"/>
<feGaussianBlur stdDeviation="0.3125" result="effect1_foregroundBlur_329_415"/>
</filter>
<linearGradient id="paint0_linear_329_415" x1="17.6565" y1="8.8675" x2="6.79715" y2="18.125" gradientUnits="userSpaceOnUse">
<stop stop-color="#4B7916"/>
<stop offset="0.165" stop-color="#4C4954"/>
<stop offset="0.243" stop-color="#4C771D"/>
<stop offset="0.464" stop-color="#524C55"/>
<stop offset="0.575" stop-color="#605A62"/>
<stop offset="1" stop-color="#574D55"/>
</linearGradient>
<linearGradient id="paint1_linear_329_415" x1="16.2896" y1="6.87496" x2="7.65643" y2="17.7343" gradientUnits="userSpaceOnUse">
<stop stop-color="#5A853F"/>
<stop offset="0.72" stop-color="#5B7444"/>
<stop offset="1" stop-color="#51534B"/>
</linearGradient>
<linearGradient id="paint2_linear_329_415" x1="16.1495" y1="7.20004" x2="17.9832" y2="11.1119" gradientUnits="userSpaceOnUse">
<stop stop-color="#80AE64"/>
<stop offset="0.51" stop-color="#84B05D"/>
<stop offset="1" stop-color="#8BB34F" stop-opacity="0"/>
</linearGradient>
<linearGradient id="paint3_linear_329_415" x1="10.5082" y1="2.85188" x2="1.79692" y2="12.4613" gradientUnits="userSpaceOnUse">
<stop stop-color="#5A873E"/>
<stop offset="0.364" stop-color="#528034"/>
<stop offset="0.578" stop-color="#5D8541"/>
<stop offset="1" stop-color="#4C6E39"/>
</linearGradient>
<linearGradient id="paint4_linear_329_415" x1="9.13336" y1="4.72681" x2="10.0396" y2="18.2074" gradientUnits="userSpaceOnUse">
<stop stop-color="#2D5B18"/>
<stop offset="0.514" stop-color="#436C30"/>
<stop offset="0.907" stop-color="#374A2A"/>
</linearGradient>
<linearGradient id="paint5_linear_329_415" x1="12.7541" y1="3.28125" x2="8.55533" y2="2.265" gradientUnits="userSpaceOnUse">
<stop stop-color="#80AE64"/>
<stop offset="0.51" stop-color="#84B05D"/>
<stop offset="1" stop-color="#8BB34F" stop-opacity="0"/>
</linearGradient>
<linearGradient id="paint6_linear_329_415" x1="2.53974" y1="16.4844" x2="14.3754" y2="4.64875" gradientUnits="userSpaceOnUse">
<stop stop-color="#88AD37"/>
<stop offset="0.419" stop-color="#70A124"/>
<stop offset="0.536" stop-color="#71A520" stop-opacity="0.798"/>
<stop offset="0.779" stop-color="#89BF21"/>
<stop offset="1" stop-color="#89C031"/>
</linearGradient>
<linearGradient id="paint7_linear_329_415" x1="2.34407" y1="16.68" x2="15.0784" y2="5.07811" gradientUnits="userSpaceOnUse">
<stop stop-color="#8FB541"/>
<stop offset="0.169" stop-color="#86AA3C"/>
<stop offset="0.358" stop-color="#8DB93F"/>
<stop offset="0.535" stop-color="#81A738"/>
<stop offset="0.712" stop-color="#8CBC3D"/>
<stop offset="0.884" stop-color="#82B42E"/>
<stop offset="1" stop-color="#83B835"/>
</linearGradient>
<linearGradient id="paint8_linear_329_415" x1="6.83661" y1="8.57439" x2="10.2154" y2="13.3594" gradientUnits="userSpaceOnUse">
<stop stop-color="#457328"/>
<stop offset="1" stop-color="#46772A"/>
</linearGradient>
<radialGradient id="paint9_radial_329_415" cx="0" cy="0" r="1" gradientUnits="userSpaceOnUse" gradientTransform="translate(9.29724 10.5863) rotate(100.814) scale(3.53942 3.54205)">
<stop stop-color="#3E5D2E"/>
<stop offset="1" stop-color="#40602F" stop-opacity="0"/>
</radialGradient>
<linearGradient id="paint10_linear_329_415" x1="12.4028" y1="7.48058" x2="9.72719" y2="10.1562" gradientUnits="userSpaceOnUse">
<stop offset="0.311" stop-color="#5C8141"/>
<stop offset="1" stop-color="#5C8142" stop-opacity="0"/>
</linearGradient>
<linearGradient id="paint11_linear_329_415" x1="12.6932" y1="11.1781" x2="9.81012" y2="10.2656" gradientUnits="userSpaceOnUse">
<stop offset="0.434" stop-color="#4D6E3C"/>
<stop offset="1" stop-color="#4D6D3C" stop-opacity="0"/>
</linearGradient>
<linearGradient id="paint12_linear_329_415" x1="5.67277" y1="11.44" x2="6.57027" y2="14.3288" gradientUnits="userSpaceOnUse">
<stop offset="0.597" stop-color="#5C8142"/>
<stop offset="1" stop-color="#4C6D3A" stop-opacity="0"/>
</linearGradient>
<linearGradient id="paint13_linear_329_415" x1="8.79258" y1="14.435" x2="5.89945" y2="13.5532" gradientUnits="userSpaceOnUse">
<stop offset="0.597" stop-color="#5C8142"/>
<stop offset="1" stop-color="#4C6D3A" stop-opacity="0"/>
</linearGradient>
<linearGradient id="paint14_linear_329_415" x1="5.17604" y1="15.0588" x2="9.92291" y2="10.3131" gradientUnits="userSpaceOnUse">
<stop offset="0.689" stop-color="#5C8142"/>
<stop offset="1" stop-color="#5C8142" stop-opacity="0"/>
</linearGradient>
<linearGradient id="paint15_linear_329_415" x1="14.5904" y1="9.2013" x2="15.0398" y2="12.715" gradientUnits="userSpaceOnUse">
<stop stop-color="#B2DE74" stop-opacity="0"/>
<stop offset="0.233" stop-color="#B2DE74"/>
<stop offset="1" stop-color="#B2DD74" stop-opacity="0"/>
</linearGradient>
<linearGradient id="paint16_linear_329_415" x1="14.5904" y1="9.2013" x2="15.0398" y2="12.715" gradientUnits="userSpaceOnUse">
<stop stop-color="#B2DE74" stop-opacity="0"/>
<stop offset="0.233" stop-color="#B2DE74"/>
<stop offset="1" stop-color="#B2DD74" stop-opacity="0"/>
</linearGradient>
<linearGradient id="paint17_linear_329_415" x1="10.961" y1="5.44939" x2="7.49412" y2="4.72377" gradientUnits="userSpaceOnUse">
<stop stop-color="#B2DE74" stop-opacity="0"/>
<stop offset="0.233" stop-color="#B2DE74"/>
<stop offset="1" stop-color="#B2DD74" stop-opacity="0"/>
</linearGradient>
<linearGradient id="paint18_linear_329_415" x1="10.961" y1="5.44939" x2="7.49412" y2="4.72377" gradientUnits="userSpaceOnUse">
<stop stop-color="#B2DE74" stop-opacity="0"/>
<stop offset="0.233" stop-color="#B2DE74"/>
<stop offset="1" stop-color="#B2DD74" stop-opacity="0"/>
</linearGradient>
<linearGradient id="paint19_linear_329_415" x1="5.67882" y1="8.28685" x2="7.04945" y2="5.02498" gradientUnits="userSpaceOnUse">
<stop stop-color="#8CB750"/>
<stop offset="0.233" stop-color="#94C155"/>
<stop offset="1" stop-color="#ABD46F" stop-opacity="0"/>
</linearGradient>
<linearGradient id="paint20_linear_329_415" x1="12.2369" y1="14.3387" x2="15.4925" y2="12.9424" gradientUnits="userSpaceOnUse">
<stop offset="0.58" stop-color="#96AA61"/>
<stop offset="1" stop-color="#819252" stop-opacity="0"/>
</linearGradient>
<linearGradient id="paint21_linear_329_415" x1="3.88706" y1="10.1563" x2="0.878932" y2="15.8401" gradientUnits="userSpaceOnUse">
<stop stop-color="#8BB34F" stop-opacity="0"/>
<stop offset="0.289" stop-color="#94C051"/>
<stop offset="0.708" stop-color="#94BE55"/>
<stop offset="1" stop-color="#8BB34F" stop-opacity="0"/>
</linearGradient>
<radialGradient id="paint22_radial_329_415" cx="0" cy="0" r="1" gradientUnits="userSpaceOnUse" gradientTransform="translate(4.97533 15.22) rotate(-50.6175) scale(0.42326 0.330302)">
<stop stop-color="#80AE64"/>
<stop offset="1" stop-color="#8BB34F" stop-opacity="0"/>
</radialGradient>
<linearGradient id="paint23_linear_329_415" x1="5.91358" y1="11.9187" x2="6.16733" y2="11.8262" gradientUnits="userSpaceOnUse">
<stop stop-color="#6E9253"/>
<stop offset="1" stop-color="#436C2F"/>
</linearGradient>
<linearGradient id="paint24_linear_329_415" x1="8.75006" y1="8.11502" x2="9.07256" y2="8.02252" gradientUnits="userSpaceOnUse">
<stop stop-color="#597843"/>
<stop offset="1" stop-color="#456D31"/>
</linearGradient>
<linearGradient id="paint25_linear_329_415" x1="12.0638" y1="11.4207" x2="12.16" y2="11.0994" gradientUnits="userSpaceOnUse">
<stop stop-color="#597843"/>
<stop offset="1" stop-color="#456D31"/>
</linearGradient>
<linearGradient id="paint26_linear_329_415" x1="8.25734" y1="14.2637" x2="8.35109" y2="14.01" gradientUnits="userSpaceOnUse">
<stop stop-color="#6E9253"/>
<stop offset="1" stop-color="#436C2F"/>
</linearGradient>
<linearGradient id="paint27_linear_329_415" x1="7.24625" y1="3.60128" x2="4.805" y2="3.73066" gradientUnits="userSpaceOnUse">
<stop stop-color="#77A458"/>
<stop offset="1" stop-color="#77A458" stop-opacity="0"/>
</linearGradient>
<linearGradient id="paint28_linear_329_415" x1="16.2695" y1="12.8994" x2="16.1888" y2="15.3425" gradientUnits="userSpaceOnUse">
<stop stop-color="#77A458"/>
<stop offset="1" stop-color="#77A458" stop-opacity="0"/>
</linearGradient>
<linearGradient id="paint29_linear_329_415" x1="3.15255" y1="7.52002" x2="3.22255" y2="5.01939" gradientUnits="userSpaceOnUse">
<stop offset="0.5" stop-color="#688E4F"/>
<stop offset="1" stop-color="#77A458" stop-opacity="0"/>
</linearGradient>
</defs>
</svg>
